<svg width="42" height="42" viewBox="0 0 42 42" fill="none" xmlns="http://www.w3.org/2000/svg">
    <path d="M21.5 3C11.8349 3 4 10.8349 4 20.5C4 30.1651 11.8349 38 21.5 38C31.1651 38 39 30.1651 39 20.5C39 10.8349 31.1651 3 21.5 3ZM28.2302 22.744C28.2302 22.744 29.7779 24.2716 30.1589 24.9807C30.1698 24.9965 30.1765 25.0087 30.1789 25.0172C30.3332 25.276 30.3715 25.4808 30.2938 25.6315C30.1661 25.8831 29.7286 26.007 29.5792 26.018H26.8448C26.6552 26.018 26.2578 25.9687 25.7766 25.637C25.4065 25.3781 25.0419 24.9534 24.6865 24.5396C24.156 23.9234 23.6966 23.3911 23.2336 23.3911C23.1748 23.3909 23.1163 23.4001 23.0604 23.4185C22.7104 23.5315 22.262 24.031 22.262 25.3617C22.262 25.7773 21.9339 26.0161 21.7023 26.0161H20.45C20.0234 26.0161 17.8013 25.8667 15.8326 23.7904C13.4227 21.2474 11.2534 16.1469 11.2352 16.0995C11.0984 15.7695 11.381 15.5927 11.6891 15.5927H14.4508C14.819 15.5927 14.9393 15.8169 15.0232 16.0156C15.1216 16.2471 15.4826 17.1677 16.075 18.2031C17.0357 19.8911 17.6245 20.5766 18.0966 20.5766C18.1851 20.5755 18.2721 20.553 18.35 20.5109C18.9661 20.1682 18.8513 17.9716 18.824 17.5159C18.824 17.4302 18.8221 16.5333 18.5068 16.1031C18.2807 15.7914 17.8961 15.6729 17.6628 15.6292C17.7572 15.4988 17.8816 15.3932 18.0255 15.3211C18.4484 15.1096 19.2104 15.0786 19.9669 15.0786H20.388C21.2083 15.0896 21.4198 15.1424 21.7169 15.2172C22.3185 15.3612 22.3313 15.7495 22.2784 17.0784C22.262 17.4557 22.2456 17.8823 22.2456 18.3854L22.2401 18.7354C22.2219 19.4117 22.2 20.1792 22.6776 20.4945C22.7392 20.5351 22.8117 20.5561 22.8854 20.5547C23.0513 20.5547 23.5508 20.5547 24.9034 18.2341C25.319 17.4864 25.6814 16.7103 25.988 15.9117C26.0154 15.8643 26.0956 15.7185 26.1904 15.662C26.2611 15.6284 26.3381 15.6104 26.4164 15.6091H29.663C30.0167 15.6091 30.2591 15.662 30.3047 15.7987C30.3849 16.0156 30.2901 16.6773 28.8081 18.6844L28.1464 19.5576C26.8029 21.3185 26.8029 21.4078 28.2302 22.744Z" fill="white"/>
</svg>
