<svg width="712" height="363" viewBox="0 0 712 363" fill="none" xmlns="http://www.w3.org/2000/svg">
    <g clip-path="url(#clip0_261_27070)">
        <path d="M671.794 123.554C669.203 113.388 665.222 103.628 659.962 94.5481C656.087 87.8663 651.55 81.5898 646.42 75.8127C643.206 72.1654 639.76 68.7278 636.105 65.5211C622.418 53.4137 606.045 44.731 588.336 40.1897C578.848 37.7558 569.09 36.5285 559.294 36.5372H326.958L297.916 57.26L286.299 65.5426L268.874 77.9613L245.64 94.5481L239.832 98.6841L231.711 104.474L210.79 119.407L204.982 123.554L181.748 140.13L164.323 152.559L152.706 160.842L138.185 171.198V36.5372H36.5378V268.581H138.185L152.706 258.021L178.112 239.575L181.748 236.954L210.79 215.855L218.05 210.591L231.711 200.665L239.832 206.445L245.64 210.591L268.874 227.146L286.299 239.575L297.916 247.858L326.958 268.581H559.294C579.685 268.606 599.721 263.255 617.378 253.068C639.359 240.374 656.576 220.844 666.402 197.46C676.228 174.076 678.121 148.124 671.794 123.564V123.554ZM559.294 181.564H337.843L326.958 173.647L297.916 152.559L326.958 131.46L337.843 123.554H559.294C566.997 123.554 574.384 126.609 579.83 132.049C585.276 137.489 588.336 144.866 588.336 152.559C588.336 160.252 585.276 167.629 579.83 173.069C574.384 178.509 566.997 181.564 559.294 181.564Z" fill="black" stroke="#black" stroke-miterlimit="10"/>
        <path d="M37.0649 305.644H46.6272V317.192L63.4286 305.644H77.3042L61.9657 316.171L77.3042 326.699H63.4286L55.0171 320.92L46.6057 326.699H37.0434L37.0649 305.644Z" fill="black"/>
        <path d="M106.938 305.343C109.813 305.343 112.571 306.484 114.605 308.514C116.638 310.545 117.78 313.3 117.78 316.171C117.78 319.043 116.638 321.798 114.605 323.829C112.571 325.859 109.813 327 106.938 327H84.8659C81.9903 327 79.2325 325.859 77.1992 323.829C75.1659 321.798 74.0235 319.043 74.0235 316.171C74.0235 313.3 75.1659 310.545 77.1992 308.514C79.2325 306.484 81.9903 305.343 84.8659 305.343H106.938ZM86.8235 313.164C86.0248 313.164 85.2587 313.48 84.6939 314.045C84.1291 314.609 83.8118 315.374 83.8118 316.171C83.8118 316.969 84.1291 317.734 84.6939 318.298C85.2587 318.863 86.0248 319.179 86.8235 319.179H104.98C105.779 319.179 106.545 318.863 107.11 318.298C107.675 317.734 107.992 316.969 107.992 316.171C107.992 315.374 107.675 314.609 107.11 314.045C106.545 313.48 105.779 313.164 104.98 313.164H86.8235Z" fill="black"/>
        <path d="M125.578 326.699H114.822L131.979 305.644H142.735L159.891 326.699H149.135L137.346 312.261L125.578 326.699Z" fill="black"/>
        <path d="M171.25 326.699H160.493L177.639 305.644H188.395L205.552 326.699H194.795L183.017 312.261L171.25 326.699Z" fill="black"/>
        <path d="M234.077 305.644L251.223 326.699H240.467L238.014 323.691H219.395L216.943 326.699H206.186L223.332 305.644H234.077ZM224.268 317.675H233.109L228.688 312.304L224.268 317.675Z" fill="black"/>
        <path d="M252.428 326.699V305.644H291.753V311.015H261.99V313.421H285.105C289.548 313.421 292.635 316.129 292.635 320.039C292.635 323.949 289.515 326.656 285.105 326.656L252.428 326.699ZM281.771 321.328C282.62 321.328 283.105 320.877 283.105 320.125C283.105 319.373 282.62 318.922 281.771 318.922H261.99V321.328H281.771Z" fill="black"/>
        <path d="M326.538 305.343C329.414 305.343 332.172 306.484 334.205 308.514C336.239 310.545 337.381 313.3 337.381 316.171C337.381 319.043 336.239 321.798 334.205 323.829C332.172 325.859 329.414 327 326.538 327H304.456C301.58 327 298.822 325.859 296.789 323.829C294.756 321.798 293.613 319.043 293.613 316.171C293.613 313.3 294.756 310.545 296.789 308.514C298.822 306.484 301.58 305.343 304.456 305.343H326.538ZM306.424 313.164C305.625 313.164 304.859 313.48 304.295 314.045C303.73 314.609 303.412 315.374 303.412 316.171C303.412 316.969 303.73 317.734 304.295 318.298C304.859 318.863 305.625 319.179 306.424 319.179H324.57C325.369 319.179 326.135 318.863 326.7 318.298C327.265 317.734 327.582 316.969 327.582 316.171C327.582 315.374 327.265 314.609 326.7 314.045C326.135 313.48 325.369 313.164 324.57 313.164H306.424Z" fill="black"/>
        <path d="M338.941 326.699V305.644H370.704C372.94 305.644 375.085 306.531 376.667 308.11C378.248 309.69 379.137 311.832 379.137 314.066C379.137 316.3 378.248 318.442 376.667 320.021C375.085 321.601 372.94 322.488 370.704 322.488H348.471V326.699H338.941ZM348.471 312.863V315.269H368.251C369.101 315.269 369.585 314.818 369.585 314.066C369.585 313.314 369.101 312.863 368.251 312.863H348.471Z" fill="black"/>
        <path d="M402.252 305.644L419.398 326.699H408.641L406.189 323.691H387.548L385.096 326.699H374.286L391.496 305.644H402.252ZM392.453 317.675H401.284L396.863 312.304L392.453 317.675Z" fill="black"/>
        <path d="M428.067 312.863H412.74V305.644H452.979V312.863H437.608V326.699H428.067V312.863Z" fill="black"/>
        <path d="M486.85 305.343C489.726 305.343 492.484 306.484 494.517 308.514C496.55 310.545 497.693 313.3 497.693 316.171C497.693 319.043 496.55 321.798 494.517 323.829C492.484 325.859 489.726 327 486.85 327H464.768C461.892 327 459.134 325.859 457.101 323.829C455.068 321.798 453.925 319.043 453.925 316.171C453.925 313.3 455.068 310.545 457.101 308.514C459.134 306.484 461.892 305.343 464.768 305.343H486.85ZM466.79 313.164C465.991 313.164 465.225 313.48 464.66 314.045C464.095 314.609 463.778 315.374 463.778 316.171C463.778 316.969 464.095 317.734 464.66 318.298C465.225 318.863 465.991 319.179 466.79 319.179H484.936C485.735 319.179 486.501 318.863 487.065 318.298C487.63 317.734 487.948 316.969 487.948 316.171C487.948 315.374 487.63 314.609 487.065 314.045C486.501 313.48 485.735 313.164 484.936 313.164H466.79Z" fill="black"/>
        <path d="M499.252 326.699V305.644H531.016C533.252 305.644 535.397 306.531 536.979 308.11C538.56 309.69 539.449 311.832 539.449 314.066C539.449 316.3 538.56 318.442 536.979 320.021C535.397 321.601 533.252 322.488 531.016 322.488H508.815V326.699H499.252ZM508.815 312.863V315.269H528.596C529.445 315.269 529.929 314.818 529.929 314.066C529.929 313.314 529.445 312.863 528.596 312.863H508.815Z" fill="black"/>
        <path d="M581.226 326.699H571.664V314.668L550.549 326.699H541.008V305.644H550.56V317.675L571.675 305.644H581.237L581.226 326.699Z" fill="black"/>
        <path d="M593.198 312.261C593.198 313.013 593.682 313.464 594.532 313.464H613.409V305.644H622.971V320.683C622.971 324.712 620.971 326.699 616.916 326.699H586.067V321.328H612.194C612.358 321.351 612.525 321.336 612.682 321.283C612.839 321.231 612.982 321.144 613.1 321.027C613.217 320.911 613.306 320.769 613.36 320.612C613.414 320.456 613.431 320.289 613.409 320.125V318.922H592.112C586.819 318.922 583.646 316.515 583.646 312.304V305.687H593.198V312.261Z" fill="black"/>
        <path d="M625.381 305.644H638.149L649.916 320.082L661.683 305.644H674.935V326.699H665.373V314.302L655.305 326.667H644.549L634.954 314.904V326.667H625.392L625.381 305.644Z" fill="black"/>
    </g>
</svg>
